<svg viewBox="0 0 500 320" xmlns="http://www.w3.org/2000/svg">
  <!-- Title for matrix -->
  
  <!-- Matrix cells - colors by column, darkening by row -->
  <!-- Row 1 -->
  <rect x="120" y="60" width="60" height="60" fill="#ffcccc" stroke="#ffffff" stroke-width="2" />
  <rect x="180" y="60" width="60" height="60" fill="#cce5ff" stroke="#ffffff" stroke-width="2" />
  <rect x="240" y="60" width="60" height="60" fill="#ccffcc" stroke="#ffffff" stroke-width="2" />
  <rect x="300" y="60" width="60" height="60" fill="#ffe0cc" stroke="#ffffff" stroke-width="2" />
  
  <!-- Row 2 -->
  <rect x="120" y="120" width="60" height="60" fill="#ff9999" stroke="#ffffff" stroke-width="2" />
  <rect x="180" y="120" width="60" height="60" fill="#99caff" stroke="#ffffff" stroke-width="2" />
  <rect x="240" y="120" width="60" height="60" fill="#99ff99" stroke="#ffffff" stroke-width="2" />
  <rect x="300" y="120" width="60" height="60" fill="#ffc299" stroke="#ffffff" stroke-width="2" />
  
  <!-- Row 3 -->
  <rect x="120" y="180" width="60" height="60" fill="#ff6666" stroke="#ffffff" stroke-width="2" />
  <rect x="180" y="180" width="60" height="60" fill="#66a3ff" stroke="#ffffff" stroke-width="2" />
  <rect x="240" y="180" width="60" height="60" fill="#66ff66" stroke="#ffffff" stroke-width="2" />
  <rect x="300" y="180" width="60" height="60" fill="#ffa366" stroke="#ffffff" stroke-width="2" />
  
  <!-- Matrix values -->
  <text x="150" y="100" text-anchor="middle" font-family="Arial" font-size="20">1</text>
  <text x="210" y="100" text-anchor="middle" font-family="Arial" font-size="20">2</text>
  <text x="270" y="100" text-anchor="middle" font-family="Arial" font-size="20">3</text>
  <text x="330" y="100" text-anchor="middle" font-family="Arial" font-size="20">4</text>
  
  <text x="150" y="160" text-anchor="middle" font-family="Arial" font-size="20">1</text>
  <text x="210" y="160" text-anchor="middle" font-family="Arial" font-size="20">4</text>
  <text x="270" y="160" text-anchor="middle" font-family="Arial" font-size="20">9</text>
  <text x="330" y="160" text-anchor="middle" font-family="Arial" font-size="20">16</text>
  
  <text x="150" y="220" text-anchor="middle" font-family="Arial" font-size="20">1</text>
  <text x="210" y="220" text-anchor="middle" font-family="Arial" font-size="20">8</text>
  <text x="270" y="220" text-anchor="middle" font-family="Arial" font-size="20">27</text>
  <text x="330" y="220" text-anchor="middle" font-family="Arial" font-size="20">64</text>
  
  <!-- Axis arrows -->
  <!-- Axis 0 (rows) - vertical black arrow on the left -->
  <line x1="100" y1="62" x2="100" y2="230" stroke="#000000" stroke-width="3" />
  <polygon points="100,240 95,220 105,220" fill="#000000" />
  <text x="95" y="200" text-anchor="middle" font-family="Arial" font-size="14" font-weight="bold" transform="rotate(270 60 180)">axis 0 (rows)</text>
  
  <line x1="120" y1="40" x2="350" y2="40" stroke="#000000" stroke-width="3" />
  <polygon points="360,40 340,35 340,45" fill="#000000" />
  <text x="240" y="25" text-anchor="middle" font-family="Arial" font-size="14" font-weight="bold">axis 1 (columns)</text>
</svg>
