<svg viewBox="0 0 700 440" xmlns="http://www.w3.org/2000/svg">
  <!-- Axis 1 (columns) - horizontal black arrow above -->
  <line x1="120" y1="70" x2="350" y2="70" stroke="#000000" stroke-width="3" />
  <polygon points="360,70 340,65 340,75" fill="#000000" />
  <text x="240" y="55" text-anchor="middle" font-family="Arial" font-size="14" font-weight="bold">axis 1 (columns)</text>
  
  
  <!-- Matrix cells - colors by column, darkening by row -->
  <!-- Row 1 -->
  <rect x="120" y="90" width="60" height="60" fill="#ffcccc" stroke="#ffffff" stroke-width="2" />
  <rect x="180" y="90" width="60" height="60" fill="#cce5ff" stroke="#ffffff" stroke-width="2" />
  <rect x="240" y="90" width="60" height="60" fill="#ccffcc" stroke="#ffffff" stroke-width="2" />
  <rect x="300" y="90" width="60" height="60" fill="#ffe0cc" stroke="#ffffff" stroke-width="2" />
  
  <!-- Row 2 -->
  <rect x="120" y="150" width="60" height="60" fill="#ff9999" stroke="#ffffff" stroke-width="2" />
  <rect x="180" y="150" width="60" height="60" fill="#99caff" stroke="#ffffff" stroke-width="2" />
  <rect x="240" y="150" width="60" height="60" fill="#99ff99" stroke="#ffffff" stroke-width="2" />
  <rect x="300" y="150" width="60" height="60" fill="#ffc299" stroke="#ffffff" stroke-width="2" />
  
  <!-- Row 3 -->
  <rect x="120" y="210" width="60" height="60" fill="#ff6666" stroke="#ffffff" stroke-width="2" />
  <rect x="180" y="210" width="60" height="60" fill="#66a3ff" stroke="#ffffff" stroke-width="2" />
  <rect x="240" y="210" width="60" height="60" fill="#66ff66" stroke="#ffffff" stroke-width="2" />
  <rect x="300" y="210" width="60" height="60" fill="#ffa366" stroke="#ffffff" stroke-width="2" />
  
  <!-- Matrix values -->
  <text x="150" y="130" text-anchor="middle" font-family="Arial" font-size="20">1</text>
  <text x="210" y="130" text-anchor="middle" font-family="Arial" font-size="20">2</text>
  <text x="270" y="130" text-anchor="middle" font-family="Arial" font-size="20">3</text>
  <text x="330" y="130" text-anchor="middle" font-family="Arial" font-size="20">4</text>
  
  <text x="150" y="190" text-anchor="middle" font-family="Arial" font-size="20">1</text>
  <text x="210" y="190" text-anchor="middle" font-family="Arial" font-size="20">4</text>
  <text x="270" y="190" text-anchor="middle" font-family="Arial" font-size="20">9</text>
  <text x="330" y="190" text-anchor="middle" font-family="Arial" font-size="20">16</text>
  
  <text x="150" y="250" text-anchor="middle" font-family="Arial" font-size="20">1</text>
  <text x="210" y="250" text-anchor="middle" font-family="Arial" font-size="20">8</text>
  <text x="270" y="250" text-anchor="middle" font-family="Arial" font-size="20">27</text>
  <text x="330" y="250" text-anchor="middle" font-family="Arial" font-size="20">64</text>
  
  <!-- Axis arrows -->
  <!-- Axis 0 (rows) - vertical black arrow on the left -->
  <line x1="100" y1="92" x2="100" y2="250" stroke="#000000" stroke-width="3" />
  <polygon points="100,270 95,250 105,250" fill="#000000" />
  <text x="70" y="200" text-anchor="middle" font-family="Arial" font-size="14" font-weight="bold" transform="rotate(270 60 180)">axis 0 (rows)</text>
  
  <!-- Sum operation for axis=0 -->
  <text x="240" y="310" text-anchor="middle" font-family="monospace" font-size="22" fill="#000000">.sum(axis=0) =</text>
  
  <!-- Sum result row for axis=0 - using the darkest shade of each column color -->
  <rect x="120" y="330" width="60" height="60" fill="#ff3333" stroke="#ffffff" stroke-width="2" />
  <rect x="180" y="330" width="60" height="60" fill="#3377ff" stroke="#ffffff" stroke-width="2" />
  <rect x="240" y="330" width="60" height="60" fill="#33ff33" stroke="#ffffff" stroke-width="2" />
  <rect x="300" y="330" width="60" height="60" fill="#ff8533" stroke="#ffffff" stroke-width="2" />
  
  <!-- Sum values for axis=0 -->
  <text x="150" y="370" text-anchor="middle" font-family="Arial" font-size="20" fill="#ffffff">3</text>
  <text x="210" y="370" text-anchor="middle" font-family="Arial" font-size="20" fill="#ffffff">14</text>
  <text x="270" y="370" text-anchor="middle" font-family="Arial" font-size="20" fill="#ffffff">39</text>
  <text x="330" y="370" text-anchor="middle" font-family="Arial" font-size="20" fill="#ffffff">84</text>
  
  <!-- Sum operation for axis=1 -->
  <text x="455" y="190" text-anchor="middle" font-family="monospace" font-size="22" fill="#000000">.sum(axis=1) = </text>
  
  <!-- Sum result column for axis=1 - using a gradient of darker purples -->
  <rect x="570" y="90" width="60" height="60" fill="#E6E4D9" stroke="#ffffff" stroke-width="2" />
  <rect x="570" y="150" width="60" height="60" fill="#CCC9B3" stroke="#ffffff" stroke-width="2" />
  <rect x="570" y="210" width="60" height="60" fill="#B3AB8C" stroke="#ffffff" stroke-width="2" />
  
  <!-- Sum values for axis=1 -->
  <text x="600" y="130" text-anchor="middle" font-family="Arial" font-size="20">10</text>
  <text x="600" y="190" text-anchor="middle" font-family="Arial" font-size="20">30</text>
  <text x="600" y="250" text-anchor="middle" font-family="Arial" font-size="20" fill="#ffffff">100</text>
</svg>
