<svg xmlns="http://www.w3.org/2000/svg" viewBox="0 0 1400 300">
  <!-- First column - min -->
  <g transform="translate(0, 50)">
    <!-- Label -->
    <text x="95" y="0" font-family="monospace" font-size="22" fill="#000000" text-anchor="middle">a</text>
    
    <!-- Data array -->
    <rect x="70" y="20" width="50" height="50" fill="#6788ee" stroke="#ddd" stroke-width="1" />
    <rect x="70" y="70" width="50" height="50" fill="#c04c3b" stroke="#ddd" stroke-width="1" />
    <rect x="70" y="120" width="50" height="50" fill="#ea8a71" stroke="#ddd" stroke-width="1" />
    <rect x="70" y="170" width="50" height="50" fill="#3b4cc0" stroke="#ddd" stroke-width="1" />
    
    <!-- Values -->
    <text x="95" y="50" font-family="monospace" font-size="22" text-anchor="middle">2</text>
    <text x="95" y="100" font-family="monospace" fill="#ffffff" font-size="22" text-anchor="middle">4</text>
    <text x="95" y="150" font-family="monospace" font-size="22" text-anchor="middle">3</text>
    <text x="95" y="200" font-family="monospace" fill="#ffffff" font-size="22" text-anchor="middle">1</text>
    
    <!-- Operation -->
    <text x="175" y="120" font-family="monospace" font-size="22" text-anchor="middle" fill="#000000">.min() =</text>
    
    <!-- Result -->
    <rect x="240" y="88" width="50" height="50" fill="#3b4cc0" stroke="#ddd" stroke-width="1" />
    <text x="265" y="120" font-family="monospace" fill="#ffffff" font-size="22" text-anchor="middle">1</text>
  </g>
  
  <!-- Second column - max -->
  <g transform="translate(320, 50)">
    <!-- Label -->
    <text x="95" y="0" font-family="monospace" font-size="22" fill="#000000" text-anchor="middle">a</text>
    
    <!-- Data array -->
    <rect x="70" y="20" width="50" height="50" fill="#6788ee" stroke="#ddd" stroke-width="1" />
    <rect x="70" y="70" width="50" height="50" fill="#c04c3b" stroke="#ddd" stroke-width="1" />
    <rect x="70" y="120" width="50" height="50" fill="#ea8a71" stroke="#ddd" stroke-width="1" />
    <rect x="70" y="170" width="50" height="50" fill="#3b4cc0" stroke="#ddd" stroke-width="1" />
    
    <!-- Values -->
    <text x="95" y="50" font-family="monospace" font-size="22" text-anchor="middle">2</text>
    <text x="95" y="100" font-family="monospace" fill="#ffffff" font-size="22" text-anchor="middle">4</text>
    <text x="95" y="150" font-family="monospace" font-size="22" text-anchor="middle">3</text>
    <text x="95" y="200" font-family="monospace" fill="#ffffff" font-size="22" text-anchor="middle">1</text>
    
    <!-- Operation -->
    <text x="175" y="120" font-family="monospace" font-size="22" text-anchor="middle" fill="#000000">.max() =</text>
    
    <!-- Result -->
    <rect x="240" y="88" width="50" height="50" fill="#c04c3b" stroke="#ddd" stroke-width="1" />
    <text x="265" y="120" font-family="monospace" fill="#ffffff" font-size="22" text-anchor="middle">4</text>
  </g>
  
  <!-- Third column - argmin -->
  <g transform="translate(640, 50)">
    <!-- Label -->
    <text x="95" y="0" font-family="monospace" font-size="22" fill="#000000" text-anchor="middle">a</text>
    
    <!-- Data array -->
    <rect x="70" y="20" width="50" height="50" fill="#6788ee" stroke="#ddd" stroke-width="1" />
    <rect x="70" y="70" width="50" height="50" fill="#c04c3b" stroke="#ddd" stroke-width="1" />
    <rect x="70" y="120" width="50" height="50" fill="#ea8a71" stroke="#ddd" stroke-width="1" />
    <rect x="70" y="170" width="50" height="50" fill="#3b4cc0" stroke="#ddd" stroke-width="1" />
    
    <!-- Values -->
    <text x="95" y="50" font-family="monospace" font-size="22" text-anchor="middle">2</text>
    <text x="95" y="100" font-family="monospace" fill="#ffffff" font-size="22" text-anchor="middle">4</text>
    <text x="95" y="150" font-family="monospace" font-size="22" text-anchor="middle">3</text>
    <text x="95" y="200" font-family="monospace" fill="#ffffff" font-size="22" text-anchor="middle">1</text>
    
    <!-- Operation -->
    <text x="195" y="120" font-family="monospace" font-size="22" text-anchor="middle" fill="#000000">.argmin() =</text>
    
    <!-- Result -->
    <rect x="280" y="88" width="50" height="50" fill="#e0e0e0" stroke="#ddd" stroke-width="1" />
    <text x="305" y="120" font-family="monospace" font-size="22" text-anchor="middle">3</text>
  </g>
  
  <!-- Fourth column - argmax -->
  <g transform="translate(1000, 50)">
    <!-- Label -->
    <text x="95" y="0" font-family="monospace" font-size="22" fill="#000000" text-anchor="middle">a</text>
    
    <!-- Data array -->
    <rect x="70" y="20" width="50" height="50" fill="#6788ee" stroke="#ddd" stroke-width="1" />
    <rect x="70" y="70" width="50" height="50" fill="#c04c3b" stroke="#ddd" stroke-width="1" />
    <rect x="70" y="120" width="50" height="50" fill="#ea8a71" stroke="#ddd" stroke-width="1" />
    <rect x="70" y="170" width="50" height="50" fill="#3b4cc0" stroke="#ddd" stroke-width="1" />
    
    <!-- Values -->
    <text x="95" y="50" font-family="monospace" font-size="22" text-anchor="middle">2</text>
    <text x="95" y="100" font-family="monospace" fill="#ffffff" font-size="22" text-anchor="middle">4</text>
    <text x="95" y="150" font-family="monospace" font-size="22" text-anchor="middle">3</text>
    <text x="95" y="200" font-family="monospace" fill="#ffffff" font-size="22" text-anchor="middle">1</text>
    
    <!-- Operation -->
    <text x="195" y="120" font-family="monospace" font-size="22" text-anchor="middle" fill="#000000">.argmax() =</text>
    
    <!-- Result -->
    <rect x="280" y="88" width="50" height="50" fill="#e0e0e0" stroke="#ddd" stroke-width="1" />
    <text x="305" y="120" font-family="monospace" font-size="22" text-anchor="middle">1</text>
  </g>
  
  <!-- Vertical separator lines -->
  <line x1="340" y1="20" x2="340" y2="300" stroke="#ddd" stroke-width="1" stroke-dasharray="5,5" />
  <line x1="660" y1="20" x2="660" y2="300" stroke="#ddd" stroke-width="1" stroke-dasharray="5,5" />
  <line x1="1020" y1="20" x2="1020" y2="300" stroke="#ddd" stroke-width="1" stroke-dasharray="5,5" />
</svg>
